<svg xmlns="http://www.w3.org/2000/svg" width="57.335" height="60.019">
    <path fill="#FFF" fill-rule="evenodd" d="M41.807 26.78l-3.234 3.186v-4.17l1.135-1.102c.276-.273.346-.591.346-.756 0-.167-.041-.482-.315-.756L19.722 3.265a1.064 1.064 0 0 0-.759-.306c-.166 0-.487.052-.761.325l-6.214 6.209 10.175 10.178h-6.597l-6.877-6.89-1.448 1.396a1.077 1.077 0 0 0-.315.769c0 .165.039.509.315.781l3.913 3.944H6.963l-1.819-1.857c-1.576-1.57-1.576-4.164 0-5.733L16.107 1.175a4.036 4.036 0 0 1 2.856-1.177c1.033 0 2.066.393 2.852 1.177l20.017 19.919c1.58 1.569 1.549 4.113-.025 5.686zm-9.366-5.242c2.23 0 3.987 1.787 3.987 4.006v10.655H-.006V25.544c0-2.219 1.907-4.006 4.136-4.006h28.311zm3.987 19.429c0 2.22-1.757 4.03-3.987 4.03H4.13c-2.229 0-4.136-1.81-4.136-4.03v-.236h36.434v.236z"/>
</svg>
