<svg xmlns="http://www.w3.org/2000/svg" width="2.858cm" height="2.787cm">
    <path fill="#717171" fill-rule="evenodd" d="M78.304 63.342c-1.311 2.947-3.081 5.517-5.294 7.715-2.218 2.195-4.827 3.922-7.825 5.178-2.575 1.074-5.311 1.593-8.158 1.747l-11.339.133H24.583c-3.375 0-6.549-.632-9.526-1.895-2.978-1.264-5.584-3.001-7.825-5.22-2.24-2.219-4.004-4.823-5.292-7.816C.651 60.198.007 57.007.007 53.622V25.307c0-3.403.633-6.603 1.896-9.606 1.264-3.004 3.001-5.633 5.222-7.893 2.221-2.26 4.824-4.039 7.819-5.338 2.985-1.3 6.178-1.949 9.563-1.949h3.056v13.091h-2.958c-1.61 0-3.113.309-4.538.925a11.914 11.914 0 0 0-3.693 2.508 11.998 11.998 0 0 0-2.498 3.715 11.305 11.305 0 0 0-.927 4.547v1.21h14.614v12.906H12.949v10.608h.037v3.494c0 1.609.307 3.115.918 4.535a11.864 11.864 0 0 0 2.486 3.694 11.895 11.895 0 0 0 3.682 2.498 11.14 11.14 0 0 0 4.511.925h20.621v-.027l10.416-.02c1.564 0 3.051-.299 4.455-.897 1.404-.596 2.625-1.397 3.654-2.396a12.656 12.656 0 0 0 2.533-3.531c.657-1.352 1.012-2.807 1.074-4.377a32.133 32.133 0 0 1-5.667 2.117c-1.966.533-4.02.801-6.139.801-3.441 0-6.674-.644-9.701-1.93-3.03-1.283-5.669-3.061-7.919-5.316-2.25-2.259-4.05-4.909-5.391-7.953-1.344-3.045-2.014-6.288-2.014-9.742 0-3.45.64-6.694 1.921-9.737 1.282-3.046 3.044-5.697 5.294-7.955 2.251-2.259 4.872-4.047 7.87-5.365 3.007-1.317 6.217-1.976 9.659-1.976 3.432 0 6.688.643 9.745 1.93 3.06 1.287 5.722 3.06 7.965 5.316 2.248 2.258 4.05 4.913 5.391 7.953 1.344 3.045 2.014 6.292 2.014 9.741v22.116c-.062 3.324-.746 6.461-2.06 9.413zm-2.15-31.529c0-2.841-.557-5.541-1.654-8.028-1.123-2.546-2.644-4.793-4.519-6.679-1.843-1.85-4.068-3.331-6.614-4.403-2.527-1.062-5.257-1.602-8.118-1.602-2.872 0-5.481.532-7.976 1.624a21.362 21.362 0 0 0-6.575 4.479c-1.851 1.858-3.328 4.081-4.392 6.61-1.055 2.505-1.59 5.227-1.59 8.092 0 2.882.541 5.508 1.653 8.029 1.122 2.546 2.643 4.793 4.519 6.676 1.861 1.865 4.075 3.35 6.577 4.41 2.497 1.06 5.207 1.597 8.065 1.597 1.742 0 3.439-.22 5.04-.655a28.047 28.047 0 0 0 4.934-1.842l6.32-3.066-.279 7.042c-.086 2.155-.591 4.195-1.499 6.065-.864 1.773-2 3.354-3.377 4.702-1.411 1.372-3.074 2.465-4.953 3.264a15.476 15.476 0 0 1-6.096 1.231l-6.204.012v.008l-4.212.027H24.583c-2.168 0-4.25-.43-6.19-1.276a16.173 16.173 0 0 1-4.976-3.38 16.124 16.124 0 0 1-3.375-5.002 15.564 15.564 0 0 1-1.251-5.488h-.016l-.037-4.229V35.194h14.613v-4.449H8.738v-5.438c0-2.183.429-4.281 1.278-6.236a16.238 16.238 0 0 1 3.373-5.009 16.181 16.181 0 0 1 4.992-3.401 15.481 15.481 0 0 1 4.97-1.229V4.781a19.413 19.413 0 0 0-6.731 1.568c-2.483 1.079-4.669 2.568-6.498 4.43-1.853 1.886-3.274 4.035-4.34 6.569-1.053 2.502-1.564 5.106-1.564 7.959v28.315c0 2.79.534 5.44 1.586 7.881 1.067 2.478 2.541 4.659 4.386 6.486 1.87 1.854 3.999 3.272 6.507 4.336 2.44 1.036 5.094 1.561 7.886 1.561H45.688l11.198-.132c2.547-.145 4.735-.612 6.686-1.425 2.476-1.037 4.659-2.479 6.482-4.284 1.835-1.821 3.319-3.986 4.405-6.429 1.088-2.446 1.643-4.987 1.696-7.767l-.001-22.036zm-9.359 11.369a15.79 15.79 0 0 1-5.089 3.521 15.612 15.612 0 0 1-6.268 1.291c-2.195 0-4.307-.434-6.274-1.292a16.22 16.22 0 0 1-5.047-3.425 16.512 16.512 0 0 1-3.416-5.067 15.777 15.777 0 0 1-1.288-6.304c0-2.185.409-4.282 1.214-6.232a15.653 15.653 0 0 1 3.405-5.14 16.44 16.44 0 0 1 4.954-3.405c1.941-.867 4.047-1.308 6.263-1.308 2.23 0 4.346.408 6.288 1.212a15.53 15.53 0 0 1 5.131 3.424 16.244 16.244 0 0 1 3.409 5.061 15.76 15.76 0 0 1 1.289 6.218 14.754 14.754 0 0 1-1.195 6.373 16.991 16.991 0 0 1-3.376 5.073zm-.58-15.979a12.044 12.044 0 0 0-2.533-3.765 11.31 11.31 0 0 0-3.751-2.496c-1.433-.593-2.999-.892-4.682-.892-1.626 0-3.144.314-4.548.942a12.185 12.185 0 0 0-3.697 2.539 11.35 11.35 0 0 0-2.486 3.764c-.598 1.445-.894 2.984-.894 4.611 0 1.635.313 3.171.938 4.614a12.171 12.171 0 0 0 2.531 3.765 12 12 0 0 0 3.747 2.538c1.441.628 2.965.943 4.598.943 1.623 0 3.15-.315 4.593-.943a11.589 11.589 0 0 0 3.744-2.588 12.715 12.715 0 0 0 2.533-3.81c.625-1.445.907-2.98.846-4.612 0-1.63-.314-3.166-.939-4.61zm-10.463 10.38c-1.542 0-2.858-.571-3.945-1.707-1.099-1.138-1.642-2.484-1.642-4.028 0-1.628.543-2.969 1.642-4.027 1.087-1.058 2.403-1.59 3.945-1.59 1.624 0 2.998.532 4.136 1.59 1.128 1.058 1.702 2.399 1.702 4.027 0 1.544-.574 2.89-1.702 4.028-1.138 1.136-2.512 1.707-4.136 1.707zm1.263-6.67c-.288-.268-.62-.453-1.263-.453-.447 0-.713.103-1.014.398-.206.197-.362.397-.362.99 0 .448.123.741.454 1.083.345.361.579.424.922.424.508 0 .813-.125 1.165-.477.383-.385.462-.682.462-1.03 0-.502-.122-.709-.364-.935z"/>
</svg>
