<svg xmlns="http://www.w3.org/2000/svg" width="4.833cm" height="3.14cm">
    <path fill="#6D6E71" fill-rule="evenodd" d="M121.083 88.429H16.511C7.736 88.429.598 81.308.598 72.56a2.269 2.269 0 0 1 2.271-2.268h6.822c0-31.741 25.294-57.688 56.832-58.886V4.547H64.25a2.27 2.27 0 0 1-2.274-2.268A2.27 2.27 0 0 1 64.25.013h9.093a2.27 2.27 0 0 1 2.273 2.266 2.27 2.27 0 0 1-2.273 2.268H71.07v6.859c31.54 1.196 56.833 27.144 56.833 58.886h6.82a2.268 2.268 0 0 1 2.273 2.268c0 8.748-7.141 15.869-15.913 15.869zM68.797 15.882c-30.084 0-54.559 24.409-54.559 54.41h109.117c0-30.001-24.476-54.41-54.558-54.41zm56.832 58.944H5.374c1.054 5.167 5.648 9.069 11.137 9.069h104.572c5.491 0 10.082-3.902 11.137-9.069h-6.591zM28.332 41.01a46.469 46.469 0 0 1 1.597-2.067c.789-.969 2.247-1.052 3.182-.223l.064.055c.907.803.982 2.16.221 3.101a46.144 46.144 0 0 0-1.333 1.727c-.715.974-2.052 1.248-3.062.58l-.068-.047c-1.047-.69-1.34-2.118-.601-3.126zm38.117-20.539c1.282-.059 2.348 1.005 2.348 2.284.002 1.223-.976 2.191-2.201 2.25a45.315 45.315 0 0 0-27.267 10.787c-.936.795-2.31.758-3.151-.134l-.007-.007c-.877-.93-.832-2.421.14-3.252a49.865 49.865 0 0 1 30.138-11.928z"/>
</svg>
