<svg xmlns="http://www.w3.org/2000/svg" width="4.939cm" height="3.14cm">
    <path fill="#F24545" fill-rule="evenodd" d="M123.743 88.997H16.931C7.967 88.997.677 81.704.677 72.745A2.323 2.323 0 0 1 3 70.423h7.003c.805-31.797 26.31-57.554 58.012-58.76V4.638h-2.324a2.321 2.321 0 0 1 0-4.643h9.289a2.319 2.319 0 0 1 2.319 2.32 2.319 2.319 0 0 1-2.319 2.323h-2.32v7.025c31.703 1.207 57.205 26.963 58.009 58.76h7.004a2.32 2.32 0 0 1 2.323 2.322c0 8.959-7.294 16.252-16.253 16.252zm-53.406-75.74c-31.824 0-57.816 25.445-58.697 57.055h3.015c.881-29.959 25.509-54.065 55.682-54.065 30.172 0 54.802 24.106 55.682 54.065h3.012c-.879-31.61-26.874-57.055-58.694-57.055zm.001 10.027c-.001-1.31-1.09-2.399-2.399-2.338a50.868 50.868 0 0 0-30.785 12.216c-.991.85-1.035 2.378-.14 3.329l.005.008c.86.912 2.265.95 3.217.136A46.227 46.227 0 0 1 68.09 25.589c1.251-.062 2.249-1.051 2.248-2.305zM33.953 39.691l-.066-.057c-.957-.851-2.444-.764-3.251.228a51.11 51.11 0 0 0-1.632 2.116c-.755 1.034-.453 2.496.614 3.203l.071.048c1.031.683 2.396.403 3.128-.595.438-.6.892-1.189 1.359-1.767.779-.963.7-2.354-.223-3.176zm104.193 32.582a.662.662 0 0 0-.473-.196H3c-.369 0-.668.3-.668.668 0 8.05 6.549 14.598 14.599 14.598h106.812c8.048 0 14.597-6.548 14.597-14.598a.66.66 0 0 0-.194-.472zm-14.403 12.079H16.931c-5.607 0-10.297-3.994-11.376-9.286h129.562c-1.08 5.292-5.771 9.286-11.374 9.286z"/>
</svg>
