<svg xmlns="http://www.w3.org/2000/svg" width="3.775cm" height="3.14cm">
    <path fill="#F24545" fill-rule="evenodd" d="M106.445 25.461c-1.999 9.314-4.064 18.946-6.075 28.425-.922 4.352-3.312 6.291-7.758 6.291H44.161l.537 2.79 16.251.001c11.632.001 23.465.002 35.135.03.913.002 2.278.116 3.547.649 2.868 1.212 4.458 4.249 3.871 7.389-.585 3.124-3.132 5.363-6.332 5.568-.742.046-1.473.038-2.353.025l-.14-.001c1.339 3.323.871 6.344-1.437 9.215-1.516 1.889-3.611 2.631-5.462 3.109l-.251.035-2.395-.09c-.105-.045-.192-.083-.235-.091-3.88-.777-6.632-3.691-7.187-7.61-.208-1.473-.026-2.927.578-4.497H57.652c1.3 3.309.816 6.306-1.476 9.148-1.527 1.9-3.619 2.635-5.462 3.105l-2.411.038-.139-.056c-.183-.074-.286-.118-.314-.123-3.883-.778-6.637-3.692-7.198-7.611-.212-1.461-.026-2.903.609-4.57-.663 0-1.278.005-1.895-.005-3.674-.063-6.279-2.211-6.97-5.745-.831-4.252-1.657-8.572-2.465-12.787L21.758 15.5c-.303-1.575-.594-1.812-2.215-1.815l-4.217-.004c-2.715-.004-5.425-.008-8.135.001-2.242 0-3.872-.622-4.988-1.901-.655-.756-1.106-1.636-1.54-2.489-.21-.398-.358-.693-.52-.979l-.104-.181-.046-.294V5.595l.15-.206C1.337 1.716 3.637.016 7.405.014l3.82-.01c3-.014 6.105-.019 9.161.02 7.346.087 13.397 5.226 14.707 12.497.162.902.344 1.813.521 2.699l.234 1.173h63.84l.623.105c.918.192 1.854.384 2.715.796 2.935 1.423 4.21 4.474 3.419 8.167zm-4.1-6.753c-.685-.328-1.491-.495-2.344-.673l-.464-.089-64.979.015-.483-2.435a144.87 144.87 0 0 1-.527-2.728C32.373 6.279 26.953 1.67 20.367 1.591a569.575 569.575 0 0 0-9.135-.022l-3.824.012c-3.07.002-4.786 1.274-5.735 4.251l-.113.245v1.557c.172.31.307.572.438.83.452.883.857 1.678 1.387 2.286.798.919 2.045 1.363 3.803 1.363 2.72-.006 5.427-.002 8.142 0l4.213.006c2.364.002 3.31.782 3.751 3.083l8.174 42.596c.808 4.215 1.634 8.53 2.467 12.782.557 2.837 2.493 4.426 5.454 4.478.616.007 1.229.003 1.887.007l2.392-.007-.508 1.111c-.89 1.964-1.16 3.391-.959 4.809.469 3.241 2.741 5.653 5.94 6.292.159.029.294.084.46.149l1.913-.009c1.406-.382 3.199-1.006 4.444-2.546 2.002-2.489 2.352-5.007 1.1-7.926l-.769-1.806h25.433l-.61 1.295c-.786 1.658-1.054 3.102-.849 4.551.46 3.238 2.734 5.649 5.936 6.291a2 2 0 0 1 .407.126l1.835.024c1.615-.424 3.37-1.056 4.575-2.555 2.007-2.497 2.352-5.014 1.093-7.922l-.79-1.892 2.524.011c.836.014 1.527.021 2.235-.018 2.466-.163 4.431-1.885 4.879-4.295.453-2.409-.755-4.736-2.936-5.656-1.03-.435-2.17-.525-2.942-.528-11.67-.026-23.503-.027-35.083-.028l-17.591-.002-1.142-5.924h50.349c3.712 0 5.456-1.416 6.229-5.051 2.013-9.478 4.076-19.112 6.073-28.425.648-3.029-.266-5.312-2.569-6.426zm-.195 7.427l-.569.079h-65.47l-1.124-5.875 17.207.004c15.233.006 30.987.014 46.588-.041 1.727 0 2.919.473 3.559 1.404.645.945.646 2.267.006 3.929l-.197.5zM41.164 65.227c.277 1.434.499 1.613 1.971 1.613l52.75.011c.519-.011 1.027 0 1.569.113a2.945 2.945 0 0 1 2.304 2.781c.035 1.334-.891 2.54-2.2 2.867-.569.14-1.146.153-1.646.153l-17.809.006H40.021c-2.572-.002-3.455-.73-3.935-3.246l-8.493-44.218a2441.89 2441.89 0 0 0-2.131-11.058c-.541-2.752-2.548-4.408-5.377-4.431a683.46 683.46 0 0 0-5.548-.017L7.4 9.803c-.414-.006-.671-.01-.931-.054-1.524-.237-2.612-1.476-2.588-2.946.022-1.405 1.049-2.58 2.504-2.857.228-.043.458-.063.706-.063.925.023 1.826.011 2.745 0l1.323-.014c2.881-.017 6.146-.035 9.317.046 5.495.146 9.719 3.733 10.76 9.138 1.77 9.204 3.543 18.561 5.262 27.613l4.666 24.561zm8.305 9.856a5 5 0 0 1 3.555 1.512 4.947 4.947 0 0 1 1.447 3.554 4.975 4.975 0 0 1-1.538 3.526 5.003 5.003 0 0 1-3.556 1.434c-2.723-.048-4.931-2.294-4.937-5.008a4.964 4.964 0 0 1 1.474-3.551 5 5 0 0 1 3.555-1.467zm36.95 0c1.382 0 2.636.511 3.585 1.431a4.972 4.972 0 0 1 1.528 3.519c.018 1.323-.495 2.585-1.448 3.556a5.008 5.008 0 0 1-3.568 1.52 4.967 4.967 0 0 1-3.522-1.461 4.995 4.995 0 0 1-1.493-3.559c.005-2.713 2.21-4.957 4.918-5.006zM36.568 28.618h18.046l1.664 11.989H38.837l-2.269-11.989zm2.733 14.408h17.292l1.809 13.201H41.809l-2.508-13.201zm43.804-14.377l-1.624 11.967H58.596l-1.62-11.967h26.129zm-3.768 27.615H60.75l-1.817-13.206h22.196l-1.792 13.206zm19.378-13.245l-1.904 9.064a42.095 42.095 0 0 1-.391 1.779c-.375 1.516-1.39 2.397-2.787 2.414-1.615.023-3.214.028-4.84.028l-7.132-.012 1.814-13.273h15.24zM85.452 28.618h16.35l-2.559 12.011H83.809l1.643-12.011z"/>
</svg>
