<svg xmlns="http://www.w3.org/2000/svg" width="3.775cm" height="3.14cm">
    <path fill="#6D6E71" fill-rule="evenodd" d="M100.6 53.887c2.052-9.647 4.154-19.452 6.187-28.933.737-3.428-.376-6.134-3.046-7.426-.775-.373-1.649-.556-2.576-.749l-.478-.089H58.395l-.498.037-22.862-.039-.02-.1c-.092-.48-.186-.957-.286-1.434-.199-1.004-.408-2.038-.594-3.064C32.871 5.072 27.031.111 19.941.029 16.908-.009 13.828 0 10.846.005l-4.113.01C3.248.021 1.211 1.527.133 4.909c-.016.055-.05.108-.087.167l-.06.096v2.007l.05.091c.158.286.309.578.455.863l.078.152c.447.87.864 1.693 1.469 2.386.976 1.118 2.431 1.662 4.473 1.662 3.081-.005 6.159-.002 9.238 0l3.343.004c2.009.002 2.663.539 3.034 2.494 1.837 9.516 3.664 19.034 5.491 28.552l1.296 6.769c.413 2.144.824 4.293 1.232 6.441l.307 1.593a2702.87 2702.87 0 0 0 2.509 13.013c.637 3.245 2.94 5.143 6.324 5.201.63.011 1.257.009 1.948.006l1.175-.003-.081.177c-.89 1.972-1.185 3.563-.959 5.165.528 3.643 3.085 6.351 6.679 7.069.12.025.232.07.403.145l.071.028 2.109-.014c1.751-.448 3.732-1.141 5.134-2.887 2.218-2.751 2.619-5.654 1.235-8.874l-.31-.735H80.12l-.083.177c-.868 1.831-1.166 3.446-.937 5.086.518 3.644 3.077 6.354 6.683 7.074.131.027.241.076.34.111l.098.062h2.094l.051-.014c1.755-.452 3.738-1.149 5.135-2.888 2.218-2.762 2.615-5.664 1.222-8.879-.04-.094-.081-.187-.139-.331l-.198-.483h.188c.398 0 .788.008 1.196.014.793.012 1.549.024 2.304-.025 2.888-.185 5.183-2.201 5.709-5.018.529-2.821-.895-5.552-3.464-6.639-1.165-.492-2.439-.597-3.304-.598-11.897-.027-23.96-.028-35.769-.03l-17.205-.002-.853-4.434h50.297c4.128-.001 6.258-1.728 7.115-5.773zM80.876 43.829L79.27 55.677H61.739L60.11 43.829h20.766zm10.708 36.849c.018 1.135-.428 2.219-1.245 3.052a4.29 4.29 0 0 1-3.069 1.306 4.255 4.255 0 0 1-3.018-1.257 4.258 4.258 0 0 1-1.278-3.056c0-2.328 1.891-4.254 4.217-4.294h.048a4.33 4.33 0 0 1 3.033 1.229 4.25 4.25 0 0 1 1.312 3.02zm-37.732.097c-.013 1.138-.482 2.214-1.322 3.032a4.346 4.346 0 0 1-3.065 1.231c-2.325-.041-4.224-1.971-4.227-4.303a4.266 4.266 0 0 1 1.264-3.049 4.293 4.293 0 0 1 3.058-1.257 4.293 4.293 0 0 1 3.049 1.298 4.229 4.229 0 0 1 1.243 3.048zM84.879 43.79h13.834l-1.733 8.253a36.963 36.963 0 0 1-.394 1.793c-.291 1.18-1.027 1.84-2.067 1.852-1.645.022-3.271.028-4.924.028l-6.348-.009 1.632-11.917zm16.971-14.657l-2.26 10.629H85.434l1.455-10.629h14.961zM56.12 43.796l1.625 11.841H42.419l-2.248-11.841H56.12zM37.388 29.13h16.715l1.471 10.61H39.397l-2.009-10.61zM5.847 4.006c.186-.036.381-.076.595-.05 1.34 0 2.685-.008 4.028-.016 3.118-.015 6.341-.038 9.545.047 5.208.139 9.21 3.536 10.195 8.658 1.8 9.332 3.6 18.825 5.357 28.099L38.903 58.3c.47 2.483.941 4.967 1.418 7.446.355 1.84.9 2.29 2.79 2.292l53.702.01c.506-.009.979.002 1.437.099a2.192 2.192 0 0 1 1.713 2.068c.024.988-.667 1.882-1.639 2.125-.486.122-1.019.133-1.48.133-6.043.004-12.088.004-18.131.004H39.936c-2.232 0-2.8-.473-3.221-2.656a37407.806 37407.806 0 0 1-6.132-31.903l-2.515-13.101c-.704-3.694-1.433-7.511-2.168-11.262-.618-3.153-3.013-5.129-6.254-5.154-1.881-.016-3.781-.02-5.667-.02-.974 0-1.945.002-2.904.003l-4.328.001c-.266-.019-.567 0-.842-.042-1.154-.183-1.98-1.109-1.961-2.2.013-1.047.796-1.927 1.903-2.137zm29.934 16.698l16.551.005c15.516.003 31.552.012 47.436-.044 1.473 0 2.468.365 2.96 1.083.504.733.476 1.833-.082 3.265l-.026.078H36.625l-.844-4.387zm47.108 8.458l-1.436 10.586H59.55l-1.437-10.586h24.776z"/>
</svg>
