<svg xmlns="http://www.w3.org/2000/svg" width="120" height="3.14cm">
    <path fill="#6D6E71" fill-rule="evenodd" d="M77.098 50.401v30.408c0 4.521-3.669 8.198-8.189 8.198H21.071a8.138 8.138 0 0 1-5.794-2.406 8.167 8.167 0 0 1-2.395-5.803l.039-30.368A22.099 22.099 0 0 1 .832 30.732c0-12.189 9.907-22.104 22.078-22.104 1.216 0 2.487.161 3.807.407C31.138 3.876 37.681.59 44.986.59c7.307 0 13.852 3.286 18.27 8.445 1.32-.246 2.592-.407 3.809-.407 12.173 0 22.077 9.915 22.077 22.104a22.102 22.102 0 0 1-12.044 19.669zM18.119 83.762a4.144 4.144 0 0 0 2.952 1.226h47.838a4.181 4.181 0 0 0 4.175-4.179v-7.877H16.907l-.01 7.87a4.152 4.152 0 0 0 1.222 2.96zm48.946-71.115c-.39 0-.802.047-1.204.079a23.956 23.956 0 0 1 3.212 11.978 2.008 2.008 0 1 1-4.017 0c0-11.08-9.004-20.095-20.07-20.095s-20.071 9.015-20.071 20.095a2.005 2.005 0 1 1-4.012 0c0-4.362 1.18-8.445 3.212-11.978-.405-.032-.817-.079-1.205-.079-9.96 0-18.063 8.113-18.063 18.085a18.085 18.085 0 0 0 10.842 16.564 2.001 2.001 0 0 1 1.249 1.908l-.027 19.708h56.173V49.176a2.236 2.236 0 0 1 .022-.337c.043-.294.149-.569.307-.807a1.975 1.975 0 0 1 .913-.759 18.087 18.087 0 0 0 10.803-16.541c0-9.972-8.103-18.085-18.064-18.085zm-6.021 44.208a2.012 2.012 0 0 1-1.553-3.283c2.153-2.631 5.565-7.884 5.565-10.783a2.01 2.01 0 0 1 4.017 0c0 5.277-5.816 12.522-6.477 13.332a2.007 2.007 0 0 1-1.552.734zm-16.058 0a2.007 2.007 0 0 1-2.007-2.009V42.789a2.008 2.008 0 1 1 4.015 0v12.057c0 1.11-.897 2.009-2.008 2.009zm-16.053 0c-.58 0-1.156-.251-1.555-.734-.661-.81-6.475-8.056-6.475-13.332a2.006 2.006 0 1 1 4.012 0c0 2.908 3.416 8.156 5.567 10.782a2.01 2.01 0 0 1-1.549 3.284z"/>
</svg>
