<svg xmlns="http://www.w3.org/2000/svg" width="3.21cm" height="3.14cm">
    <path fill="#F24545" fill-rule="evenodd" d="M77.891 50.135v30.609c0 4.55-3.708 8.252-8.268 8.252H21.321c-2.21 0-4.286-.86-5.849-2.421a8.198 8.198 0 0 1-2.42-5.842l.042-30.569C5.637 46.385.889 38.742.889 30.336c0-12.269 9.997-22.25 22.291-22.25 1.227 0 2.51.161 3.842.409 4.463-5.193 11.07-8.501 18.446-8.501 7.376 0 13.985 3.308 18.448 8.501 1.332-.248 2.615-.409 3.845-.409 12.29 0 22.289 9.981 22.289 22.25 0 8.38-4.729 16.01-12.159 19.799zM67.761 9.74c-1.016 0-2.139.121-3.545.38l-.937.174-.62-.723C58.33 4.536 52.065 1.648 45.468 1.648c-6.596 0-12.86 2.888-17.189 7.923l-.622.723-.937-.174c-1.406-.26-2.53-.381-3.54-.381-11.379.001-20.636 9.24-20.636 20.597 0 7.789 4.328 14.822 11.301 18.354l.906.461-.001 1.015-.038 30.57a6.542 6.542 0 0 0 1.933 4.67 6.566 6.566 0 0 0 4.676 1.936h48.302c3.645 0 6.611-2.96 6.611-6.598V49.123l.902-.46c6.946-3.542 11.256-10.564 11.256-18.327 0-11.357-9.255-20.596-20.631-20.596zm7.333 37.246c-.11.043-.208.095-.304.157a2 2 0 0 0-.93 1.42 1.925 1.925 0 0 0-.022.339v19.866H17.122l.026-19.838a2.067 2.067 0 0 0-.34-1.171 2.04 2.04 0 0 0-.923-.75C9.237 44.107 4.939 37.567 4.939 30.336c0-10.04 8.183-18.205 18.241-18.205.391 0 .806.047 1.213.079a24.068 24.068 0 0 0-3.242 12.058c0 1.117.906 2.022 2.029 2.022a2.026 2.026 0 0 0 2.026-2.022c0-11.154 9.091-20.228 20.264-20.228s20.263 9.074 20.263 20.228c0 1.117.906 2.022 2.028 2.022a2.022 2.022 0 0 0 2.023-2.022c0-4.39-1.19-8.502-3.241-12.058.407-.032.823-.079 1.218-.079 10.056 0 18.235 8.166 18.235 18.205 0 7.206-4.279 13.736-10.902 16.65zm-44.27 6.338c-2.172-2.641-5.618-7.924-5.618-10.851 0-1.117-.91-2.023-2.026-2.023a2.025 2.025 0 0 0-2.029 2.023c0 5.311 5.868 12.605 6.539 13.42a2.032 2.032 0 0 0 2.855.282 2.03 2.03 0 0 0 .279-2.851zm16.671-10.851a2.026 2.026 0 0 0-2.025-2.023 2.025 2.025 0 0 0-2.028 2.023v12.136c0 1.119.907 2.023 2.028 2.023a2.024 2.024 0 0 0 2.025-2.023V42.473zm20.266-2.023a2.024 2.024 0 0 0-2.028 2.023c0 2.917-3.447 8.205-5.622 10.854a2.025 2.025 0 0 0 1.568 3.305 2.03 2.03 0 0 0 1.569-.739c.669-.815 6.536-8.109 6.536-13.42a2.023 2.023 0 0 0-2.023-2.023zm6.077 32.364v7.93a4.217 4.217 0 0 1-4.215 4.208H21.321a4.192 4.192 0 0 1-2.98-1.235 4.18 4.18 0 0 1-1.236-2.979l.012-7.924h56.721z"/>
</svg>
